{"asset":{"version":"2.0","generator":"Blockbench 5.0.3 glTF exporter"},"scenes":[{"nodes":[11,14,17],"name":"blockbench_export"}],"scene":0,"nodes":[{"translation":[0,-0.75,0],"name":"Body Layer","mesh":0},{"translation":[0,-0.75,0],"name":"Body","mesh":1},{"translation":[0,-1.5,0],"name":"Head","mesh":2},{"translation":[0,-1.5,0],"name":"Hat Layer","mesh":3},{"translation":[0,0.75,0],"name":"Head","children":[2,3]},{"translation":[-0.3125,-1.375,0],"name":"Right Arm","mesh":4},{"translation":[-0.3125,-1.375,0],"name":"Right Arm Layer","mesh":5},{"translation":[0.3125,0.625,0],"name":"Right Arm","children":[5,6]},{"translation":[0.3125,-1.375,0],"name":"Left Arm","mesh":6},{"translation":[0.3125,-1.375,0],"name":"Left Arm Layer","mesh":7},{"translation":[-0.3125,0.625,0],"name":"Left Arm","children":[8,9]},{"translation":[0,0.75,0],"name":"Body","children":[0,1,4,7,10]},{"translation":[-0.11875,-0.75,0],"name":"Right Leg","mesh":8},{"translation":[-0.11875,-0.75,0],"name":"Right Leg Layer","mesh":9},{"translation":[0.11875,0.75,0],"name":"Right Leg","children":[12,13]},{"translation":[0.11875,-0.75,0],"name":"Left Leg","mesh":10},{"translation":[0.11875,-0.75,0],"name":"Left Leg Layer","mesh":11},{"translation":[-0.11875,0.75,0],"name":"Left Leg","children":[15,16]}],"bufferViews":[{"buffer":0,"byteOffset":0,"byteLength":288,"target":34962,"byteStride":12},{"buffer":0,"byteOffset":288,"byteLength":288,"target":34962,"byteStride":12},{"buffer":0,"byteOffset":576,"byteLength":192,"target":34962,"byteStride":8},{"buffer":0,"byteOffset":768,"byteLength":72,"target":34963},{"buffer":0,"byteOffset":840,"byteLength":288,"target":34962,"byteStride":12},{"buffer":0,"byteOffset":1128,"byteLength":288,"target":34962,"byteStride":12},{"buffer":0,"byteOffset":1416,"byteLength":192,"target":34962,"byteStride":8},{"buffer":0,"byteOffset":1608,"byteLength":72,"target":34963},{"buffer":0,"byteOffset":1680,"byteLength":288,"target":34962,"byteStride":12},{"buffer":0,"byteOffset":1968,"byteLength":288,"target":34962,"byteStride":12},{"buffer":0,"byteOffset":2256,"byteLength":192,"target":34962,"byteStride":8},{"buffer":0,"byteOffset":2448,"byteLength":72,"target":34963},{"buffer":0,"byteOffset":2520,"byteLength":288,"target":34962,"byteStride":12},{"buffer":0,"byteOffset":2808,"byteLength":288,"target":34962,"byteStride":12},{"buffer":0,"byteOffset":3096,"byteLength":192,"target":34962,"byteStride":8},{"buffer":0,"byteOffset":3288,"byteLength":72,"target":34963},{"buffer":0,"byteOffset":3360,"byteLength":288,"target":34962,"byteStride":12},{"buffer":0,"byteOffset":3648,"byteLength":288,"target":34962,"byteStride":12},{"buffer":0,"byteOffset":3936,"byteLength":192,"target":34962,"byteStride":8},{"buffer":0,"byteOffset":4128,"byteLength":72,"target":34963},{"buffer":0,"byteOffset":4200,"byteLength":288,"target":34962,"byteStride":12},{"buffer":0,"byteOffset":4488,"byteLength":288,"target":34962,"byteStride":12},{"buffer":0,"byteOffset":4776,"byteLength":192,"target":34962,"byteStride":8},{"buffer":0,"byteOffset":4968,"byteLength":72,"target":34963},{"buffer":0,"byteOffset":5040,"byteLength":288,"target":34962,"byteStride":12},{"buffer":0,"byteOffset":5328,"byteLength":288,"target":34962,"byteStride":12},{"buffer":0,"byteOffset":5616,"byteLength":192,"target":34962,"byteStride":8},{"buffer":0,"byteOffset":5808,"byteLength":72,"target":34963},{"buffer":0,"byteOffset":5880,"byteLength":288,"target":34962,"byteStride":12},{"buffer":0,"byteOffset":6168,"byteLength":288,"target":34962,"byteStride":12},{"buffer":0,"byteOffset":6456,"byteLength":192,"target":34962,"byteStride":8},{"buffer":0,"byteOffset":6648,"byteLength":72,"target":34963},{"buffer":0,"byteOffset":6720,"byteLength":288,"target":34962,"byteStride":12},{"buffer":0,"byteOffset":7008,"byteLength":288,"target":34962,"byteStride":12},{"buffer":0,"byteOffset":7296,"byteLength":192,"target":34962,"byteStride":8},{"buffer":0,"byteOffset":7488,"byteLength":72,"target":34963},{"buffer":0,"byteOffset":7560,"byteLength":288,"target":34962,"byteStride":12},{"buffer":0,"byteOffset":7848,"byteLength":288,"target":34962,"byteStride":12},{"buffer":0,"byteOffset":8136,"byteLength":192,"target":34962,"byteStride":8},{"buffer":0,"byteOffset":8328,"byteLength":72,"target":34963},{"buffer":0,"byteOffset":8400,"byteLength":288,"target":34962,"byteStride":12},{"buffer":0,"byteOffset":8688,"byteLength":288,"target":34962,"byteStride":12},{"buffer":0,"byteOffset":8976,"byteLength":192,"target":34962,"byteStride":8},{"buffer":0,"byteOffset":9168,"byteLength":72,"target":34963},{"buffer":0,"byteOffset":9240,"byteLength":288,"target":34962,"byteStride":12},{"buffer":0,"byteOffset":9528,"byteLength":288,"target":34962,"byteStride":12},{"buffer":0,"byteOffset":9816,"byteLength":192,"target":34962,"byteStride":8},{"buffer":0,"byteOffset":10008,"byteLength":72,"target":34963},{"buffer":0,"byteOffset":10080,"byteLength":344},{"buffer":0,"byteOffset":10424,"byteLength":1376},{"buffer":0,"byteOffset":11800,"byteLength":344},{"buffer":0,"byteOffset":12144,"byteLength":1032},{"buffer":0,"byteOffset":13176,"byteLength":344},{"buffer":0,"byteOffset":13520,"byteLength":1376},{"buffer":0,"byteOffset":14896,"byteLength":344},{"buffer":0,"byteOffset":15240,"byteLength":1376},{"buffer":0,"byteOffset":16616,"byteLength":344},{"buffer":0,"byteOffset":16960,"byteLength":1032},{"buffer":0,"byteOffset":17992,"byteLength":344},{"buffer":0,"byteOffset":18336,"byteLength":1376},{"buffer":0,"byteOffset":19712,"byteLength":344},{"buffer":0,"byteOffset":20056,"byteLength":1032},{"buffer":0,"byteOffset":21088,"byteLength":344},{"buffer":0,"byteOffset":21432,"byteLength":1376},{"buffer":0,"byteOffset":22808,"byteLength":344},{"buffer":0,"byteOffset":23152,"byteLength":1032},{"buffer":0,"byteOffset":24184,"byteLength":344},{"buffer":0,"byteOffset":24528,"byteLength":1376},{"buffer":0,"byteOffset":25904,"byteLength":344},{"buffer":0,"byteOffset":26248,"byteLength":1032},{"buffer":0,"byteOffset":27280,"byteLength":32},{"buffer":0,"byteOffset":27312,"byteLength":128}],"buffers":[{"byteLength":27440,"uri":"data:application/octet-stream;base64,"}],"accessors":[{"bufferView":0,"componentType":5126,"count":24,"max":[0.265625,1.515625,0.140625],"min":[-0.265625,0.734375,-0.140625],"type":"VEC3"},{"bufferView":1,"componentType":5126,"count":24,"max":[1,1,1],"min":[-1,-1,-1],"type":"VEC3"},{"bufferView":2,"componentType":5126,"count":24,"max":[0.624755859375,0.749755859375],"min":[0.250244140625,0.500244140625],"type":"VEC2"},{"bufferView":3,"componentType":5123,"count":36,"max":[23],"min":[0],"type":"SCALAR"},{"bufferView":4,"componentType":5126,"count":24,"max":[0.25,1.5,0.125],"min":[-0.25,0.75,-0.125],"type":"VEC3"},{"bufferView":5,"componentType":5126,"count":24,"max":[1,1,1],"min":[-1,-1,-1],"type":"VEC3"},{"bufferView":6,"componentType":5126,"count":24,"max":[0.624755859375,0.499755859375],"min":[0.250244140625,0.250244140625],"type":"VEC2"},{"bufferView":7,"componentType":5123,"count":36,"max":[23],"min":[0],"type":"SCALAR"},{"bufferView":8,"componentType":5126,"count":24,"max":[0.25,2,0.25],"min":[-0.25,1.5,-0.25],"type":"VEC3"},{"bufferView":9,"componentType":5126,"count":24,"max":[1,1,1],"min":[-1,-1,-1],"type":"VEC3"},{"bufferView":10,"componentType":5126,"count":24,"max":[0.499755859375,0.249755859375],"min":[0.000244140625,0.000244140625],"type":"VEC2"},{"bufferView":11,"componentType":5123,"count":36,"max":[23],"min":[0],"type":"SCALAR"},{"bufferView":12,"componentType":5126,"count":24,"max":[0.28125,2.03125,0.28125],"min":[-0.28125,1.46875,-0.28125],"type":"VEC3"},{"bufferView":13,"componentType":5126,"count":24,"max":[1,1,1],"min":[-1,-1,-1],"type":"VEC3"},{"bufferView":14,"componentType":5126,"count":24,"max":[0.999755859375,0.249755859375],"min":[0.500244140625,0.000244140625],"type":"VEC2"},{"bufferView":15,"componentType":5123,"count":36,"max":[23],"min":[0],"type":"SCALAR"},{"bufferView":16,"componentType":5126,"count":24,"max":[0.4375,1.5,0.125],"min":[0.25,0.75,-0.125],"type":"VEC3"},{"bufferView":17,"componentType":5126,"count":24,"max":[1,1,1],"min":[-1,-1,-1],"type":"VEC3"},{"bufferView":18,"componentType":5126,"count":24,"max":[0.843505859375,0.499755859375],"min":[0.625244140625,0.250244140625],"type":"VEC2"},{"bufferView":19,"componentType":5123,"count":36,"max":[23],"min":[0],"type":"SCALAR"},{"bufferView":20,"componentType":5126,"count":24,"max":[0.453125,1.515625,0.140625],"min":[0.234375,0.734375,-0.140625],"type":"VEC3"},{"bufferView":21,"componentType":5126,"count":24,"max":[1,1,1],"min":[-1,-1,-1],"type":"VEC3"},{"bufferView":22,"componentType":5126,"count":24,"max":[0.843505859375,0.749755859375],"min":[0.625244140625,0.500244140625],"type":"VEC2"},{"bufferView":23,"componentType":5123,"count":36,"max":[23],"min":[0],"type":"SCALAR"},{"bufferView":24,"componentType":5126,"count":24,"max":[-0.25,1.5,0.125],"min":[-0.4375,0.75,-0.125],"type":"VEC3"},{"bufferView":25,"componentType":5126,"count":24,"max":[1,1,1],"min":[-1,-1,-1],"type":"VEC3"},{"bufferView":26,"componentType":5126,"count":24,"max":[0.718505859375,0.999755859375],"min":[0.500244140625,0.750244140625],"type":"VEC2"},{"bufferView":27,"componentType":5123,"count":36,"max":[23],"min":[0],"type":"SCALAR"},{"bufferView":28,"componentType":5126,"count":24,"max":[-0.234375,1.515625,0.140625],"min":[-0.453125,0.734375,-0.140625],"type":"VEC3"},{"bufferView":29,"componentType":5126,"count":24,"max":[1,1,1],"min":[-1,-1,-1],"type":"VEC3"},{"bufferView":30,"componentType":5126,"count":24,"max":[0.968505859375,0.999755859375],"min":[0.750244140625,0.750244140625],"type":"VEC2"},{"bufferView":31,"componentType":5123,"count":36,"max":[23],"min":[0],"type":"SCALAR"},{"bufferView":32,"componentType":5126,"count":24,"max":[0.24375000596046448,0.75,0.125],"min":[-0.0062500000931322575,0,-0.125],"type":"VEC3"},{"bufferView":33,"componentType":5126,"count":24,"max":[1,1,1],"min":[-1,-1,-1],"type":"VEC3"},{"bufferView":34,"componentType":5126,"count":24,"max":[0.249755859375,0.499755859375],"min":[0.000244140625,0.250244140625],"type":"VEC2"},{"bufferView":35,"componentType":5123,"count":36,"max":[23],"min":[0],"type":"SCALAR"},{"bufferView":36,"componentType":5126,"count":24,"max":[0.2593750059604645,0.765625,0.140625],"min":[-0.02187499962747097,-0.015625,-0.140625],"type":"VEC3"},{"bufferView":37,"componentType":5126,"count":24,"max":[1,1,1],"min":[-1,-1,-1],"type":"VEC3"},{"bufferView":38,"componentType":5126,"count":24,"max":[0.249755859375,0.749755859375],"min":[0.000244140625,0.500244140625],"type":"VEC2"},{"bufferView":39,"componentType":5123,"count":36,"max":[23],"min":[0],"type":"SCALAR"},{"bufferView":40,"componentType":5126,"count":24,"max":[0.0062500000931322575,0.75,0.125],"min":[-0.24375000596046448,0,-0.125],"type":"VEC3"},{"bufferView":41,"componentType":5126,"count":24,"max":[1,1,1],"min":[-1,-1,-1],"type":"VEC3"},{"bufferView":42,"componentType":5126,"count":24,"max":[0.499755859375,0.999755859375],"min":[0.250244140625,0.750244140625],"type":"VEC2"},{"bufferView":43,"componentType":5123,"count":36,"max":[23],"min":[0],"type":"SCALAR"},{"bufferView":44,"componentType":5126,"count":24,"max":[0.02187499962747097,0.765625,0.140625],"min":[-0.2593750059604645,-0.015625,-0.140625],"type":"VEC3"},{"bufferView":45,"componentType":5126,"count":24,"max":[1,1,1],"min":[-1,-1,-1],"type":"VEC3"},{"bufferView":46,"componentType":5126,"count":24,"max":[0.249755859375,0.999755859375],"min":[0.000244140625,0.750244140625],"type":"VEC2"},{"bufferView":47,"componentType":5123,"count":36,"max":[23],"min":[0],"type":"SCALAR"},{"bufferView":48,"componentType":5126,"count":86,"max":[4.958333492279053],"min":[0],"type":"SCALAR"},{"bufferView":49,"componentType":5126,"count":86,"max":[0,0.0002443068951833993,0.01744951494038105,0.9999996423721313],"min":[-0.017451930791139603,-0.0001469218696001917,-0.017440371215343475,0.9997545480728149],"type":"VEC4"},{"bufferView":50,"componentType":5126,"count":86,"max":[4.958333492279053],"min":[0],"type":"SCALAR"},{"bufferView":51,"componentType":5126,"count":86,"max":[0.02187499962747097,0.75,-0.015625],"min":[-0.02187499962747097,0.737500011920929,-0.015625],"type":"VEC3"},{"bufferView":52,"componentType":5126,"count":86,"max":[4.958333492279053],"min":[0],"type":"SCALAR"},{"bufferView":53,"componentType":5126,"count":86,"max":[-0.011343454010784626,0.0003798399702645838,0.01308201439678669,0.9999308586120605],"min":[-0.03228292614221573,-0.0004161517135798931,-0.013086242601275444,0.9993957281112671],"type":"VEC4"},{"bufferView":54,"componentType":5126,"count":86,"max":[4.958333492279053],"min":[0],"type":"SCALAR"},{"bufferView":55,"componentType":5126,"count":86,"max":[0.011389413848519325,-0.10782430320978165,0.07391926646232605,0.9931656122207642],"min":[-0.008854457177221775,-0.10905280709266663,0.04239030182361603,0.9913529753684998],"type":"VEC4"},{"bufferView":56,"componentType":5126,"count":86,"max":[4.958333492279053],"min":[0],"type":"SCALAR"},{"bufferView":57,"componentType":5126,"count":86,"max":[0.3125,0.625,0],"min":[0.3125,0.612500011920929,0],"type":"VEC3"},{"bufferView":58,"componentType":5126,"count":86,"max":[4.958333492279053],"min":[0],"type":"SCALAR"},{"bufferView":59,"componentType":5126,"count":86,"max":[0.011610820889472961,0.1090754047036171,-0.0426858626306057,0.9931645393371582],"min":[-0.008534436114132404,0.10781024396419525,-0.073671355843544,0.9913762211799622],"type":"VEC4"},{"bufferView":60,"componentType":5126,"count":86,"max":[4.958333492279053],"min":[0],"type":"SCALAR"},{"bufferView":61,"componentType":5126,"count":86,"max":[-0.3125,0.625,0],"min":[-0.3125,0.612500011920929,0],"type":"VEC3"},{"bufferView":62,"componentType":5126,"count":86,"max":[4.958333492279053],"min":[0],"type":"SCALAR"},{"bufferView":63,"componentType":5126,"count":86,"max":[0.0021399303805083036,-0.06536810845136642,0.03264902904629707,0.9978565573692322],"min":[0.00014268737868405879,-0.06540297716856003,0.002176988637074828,0.9973246455192566],"type":"VEC4"},{"bufferView":64,"componentType":5126,"count":86,"max":[4.958333492279053],"min":[0],"type":"SCALAR"},{"bufferView":65,"componentType":5126,"count":86,"max":[0.140625,0.75,0],"min":[0.09687499701976776,0.75,0],"type":"VEC3"},{"bufferView":66,"componentType":5126,"count":86,"max":[4.958333492279053],"min":[0],"type":"SCALAR"},{"bufferView":67,"componentType":5126,"count":86,"max":[0.0021399303805083036,0.06540297716856003,-0.002176988637074828,0.9978565573692322],"min":[0.00014268737868405879,0.06536810845136642,-0.03264902904629707,0.9973246455192566],"type":"VEC4"},{"bufferView":68,"componentType":5126,"count":86,"max":[4.958333492279053],"min":[0],"type":"SCALAR"},{"bufferView":69,"componentType":5126,"count":86,"max":[-0.09687499701976776,0.75,0],"min":[-0.140625,0.75,0],"type":"VEC3"},{"bufferView":70,"componentType":5126,"count":8,"max":[0.4166699945926666],"min":[0],"type":"SCALAR"},{"bufferView":71,"componentType":5126,"count":8,"max":[0.10886687785387039,0,0,1],"min":[-0.08715574443340302,0,0,0.9940563440322876],"type":"VEC4"}],"materials":[{"pbrMetallicRoughness":{"metallicFactor":0,"roughnessFactor":1,"baseColorTexture":{"index":0}},"alphaMode":"MASK","alphaCutoff":0.05}],"textures":[{"sampler":0,"source":0}],"samplers":[{"magFilter":9728,"minFilter":9728,"wrapS":10497,"wrapT":10497}],"images":[{"mimeType":"image/png","uri":"data:image/png;base64,"}],"meshes":[{"primitives":[{"mode":4,"attributes":{"POSITION":0,"NORMAL":1,"TEXCOORD_0":2},"indices":3,"material":0}]},{"primitives":[{"mode":4,"attributes":{"POSITION":4,"NORMAL":5,"TEXCOORD_0":6},"indices":7,"material":0}]},{"primitives":[{"mode":4,"attributes":{"POSITION":8,"NORMAL":9,"TEXCOORD_0":10},"indices":11,"material":0}]},{"primitives":[{"mode":4,"attributes":{"POSITION":12,"NORMAL":13,"TEXCOORD_0":14},"indices":15,"material":0}]},{"primitives":[{"mode":4,"attributes":{"POSITION":16,"NORMAL":17,"TEXCOORD_0":18},"indices":19,"material":0}]},{"primitives":[{"mode":4,"attributes":{"POSITION":20,"NORMAL":21,"TEXCOORD_0":22},"indices":23,"material":0}]},{"primitives":[{"mode":4,"attributes":{"POSITION":24,"NORMAL":25,"TEXCOORD_0":26},"indices":27,"material":0}]},{"primitives":[{"mode":4,"attributes":{"POSITION":28,"NORMAL":29,"TEXCOORD_0":30},"indices":31,"material":0}]},{"primitives":[{"mode":4,"attributes":{"POSITION":32,"NORMAL":33,"TEXCOORD_0":34},"indices":35,"material":0}]},{"primitives":[{"mode":4,"attributes":{"POSITION":36,"NORMAL":37,"TEXCOORD_0":38},"indices":39,"material":0}]},{"primitives":[{"mode":4,"attributes":{"POSITION":40,"NORMAL":41,"TEXCOORD_0":42},"indices":43,"material":0}]},{"primitives":[{"mode":4,"attributes":{"POSITION":44,"NORMAL":45,"TEXCOORD_0":46},"indices":47,"material":0}]}],"animations":[{"name":"idle","samplers":[{"input":48,"output":49,"interpolation":"LINEAR"},{"input":50,"output":51,"interpolation":"LINEAR"},{"input":52,"output":53,"interpolation":"LINEAR"},{"input":54,"output":55,"interpolation":"LINEAR"},{"input":56,"output":57,"interpolation":"LINEAR"},{"input":58,"output":59,"interpolation":"LINEAR"},{"input":60,"output":61,"interpolation":"LINEAR"},{"input":62,"output":63,"interpolation":"LINEAR"},{"input":64,"output":65,"interpolation":"LINEAR"},{"input":66,"output":67,"interpolation":"LINEAR"},{"input":68,"output":69,"interpolation":"LINEAR"}],"channels":[{"sampler":0,"target":{"node":11,"path":"rotation"}},{"sampler":1,"target":{"node":11,"path":"translation"}},{"sampler":2,"target":{"node":4,"path":"rotation"}},{"sampler":3,"target":{"node":7,"path":"rotation"}},{"sampler":4,"target":{"node":7,"path":"translation"}},{"sampler":5,"target":{"node":10,"path":"rotation"}},{"sampler":6,"target":{"node":10,"path":"translation"}},{"sampler":7,"target":{"node":14,"path":"rotation"}},{"sampler":8,"target":{"node":14,"path":"translation"}},{"sampler":9,"target":{"node":17,"path":"rotation"}},{"sampler":10,"target":{"node":17,"path":"translation"}}]},{"name":"hit","samplers":[{"input":70,"output":71,"interpolation":"LINEAR"}],"channels":[{"sampler":0,"target":{"node":4,"path":"rotation"}}]}]}